<svg width="244" height="74" fill="none" xmlns="http://www.w3.org/2000/svg"><g clip-path="url(#a)"><path d="M136.84 49.152c-.461-.515-.814.082-1.031.353a12.139 12.139 0 0 1-1.573 1.682c-2.144 1.844-5.887 1.655-5.887 1.655-2.958 0-4.694-1.194-6.701-3.744-2.008-2.55-1.33-8.382-1.33-8.382h12.697c1.79 0 2.875-.57 3.337-1.058.298-.298 1.058-.922.434-5.072-.733-4.883-6.321-6.212-9.902-6.13-3.581.08-6.023 2.088-7.135 3.146-.462.434-3.88 3.879-3.88 10.172 0 3.662.597 5.913 1.574 8.002.976 2.089 3.581 5.697 9.902 5.697s9.007-4.34 9.441-5.019c.434-.678.515-.678 0-1.275l.054-.027Zm-15.328-14.35c.434-1.057 2.469-4.42 5.806-4.42s4.639 1.817 5.073 2.549c.922 1.573.814 4.042.814 4.937 0 1.058-1.275 1.058-1.275 1.058h-11.449c.081-1.275.597-3.065 1.031-4.123ZM216.355 49.152c-.38-.46-.733.109-.95.407-.217.299-.271.488-1.655 1.6-2.468 2.035-5.887 1.655-5.887 1.655-3.743-.19-5.371-1.844-6.7-3.743-1.845-2.658-1.303-8.382-1.303-8.382h12.697c1.79 0 2.848-.38 3.337-1.058.244-.353 1.22-1.14.434-5.073-.977-4.936-5.887-6.32-9.902-6.13-3.581.163-6.023 2.089-7.135 3.146-.462.435-3.88 3.88-3.88 10.173 0 3.662.597 5.913 1.574 8.002.976 2.089 3.581 5.697 9.902 5.697s9.007-4.34 9.441-5.019c.434-.678.515-.65 0-1.275h.027Zm-15.328-14.35c.434-1.057 2.469-4.421 5.806-4.421 3.336 0 4.611 1.817 5.073 2.55 1.003 1.627.895 4.042.814 4.937-.082.895-1.276 1.058-1.276 1.058h-11.448c.081-1.275.597-3.066 1.031-4.123ZM142.754 18.907v33.5c0 .407.38 2.767 2.74 2.767 2.361 0 3.934-.76 4.911-1.41.976-.678 1.356-1.058 1.627-1.357.272-.298.489-2.251-1.329-.895-1.112.814-1.682 1.112-2.523 1.058-1.058-.081-1.031-.813-1.031-2.007V18.907s.136-1.275-2.252-1.275c-2.224 0-2.143 1.275-2.143 1.275ZM183.855 18.907v33.5s0 2.767 2.74 2.767c2.387 0 3.933-.76 4.91-1.41.977-.678 1.112-.868 1.628-1.357.542-.46.597-2.115-1.33-.895-.596.38-1.383.868-2.523 1.058-1.031.163-1.031-.814-1.031-2.007V18.907s.055-1.221-2.197-1.221c-2.225 0-2.197 1.22-2.197 1.22ZM178.51 51.648c-1.085.542-1.41.786-2.17.597-.678-.163-.597-1.384-.597-2.252V34.857c0-2.252-.976-3.852-2.496-5.018-1.519-1.167-4.829-1.384-6.728-1.384s-4.72.19-6.728 1.655c-2.007 1.465-2.631 2.767-2.631 4.177 0 1.41.488 3.255 2.496 3.255 2.007 0 2.821-1.22 3.092-1.573.272-.353-1.031-.163-1.193-1.546-.082-.76-.055-1.98 1.275-2.903 1.383-.95 2.224-1.112 3.825-1.193 1.709-.082 4.476.271 4.476 3.635 0 3.363-.081 6.646-.081 6.646s-5.019-.028-8.899 1.464c-3.879 1.492-5.914 3.934-5.914 7.324 0 3.391 2.605 5.995 5.942 5.995 3.336 0 6.321-2.17 7.08-2.767.733-.596 1.818-1.709 1.818-1.709v2.143c0 .787.949 1.682 3.011 1.682 2.062 0 3.5-.814 4.097-1.275a30.31 30.31 0 0 0 1.221-.976c.244-.19.732-1.682-.896-.895v.054Zm-7.433-3.744s-2.794 3.988-6.403 3.988c-3.608 0-4.015-2.387-4.015-3.337 0-.949.841-3.58 3.88-4.774 1.872-.76 6.538-1.193 6.538-1.193v5.316ZM242.861 51.648c-1.112.515-1.411.787-2.17.597-.733-.19-.597-1.384-.597-2.252V34.857c0-2.252-.977-3.852-2.496-5.018-1.519-1.167-4.829-1.384-6.728-1.384s-4.721.19-6.728 1.655c-2.008 1.465-2.632 2.767-2.632 4.177 0 1.41.489 3.255 2.496 3.255 2.008 0 2.822-1.22 3.093-1.573.271-.353-1.031-.163-1.194-1.546-.081-.76-.108-1.899 1.194-2.848 1.302-.95 2.197-1.221 3.907-1.221 1.709 0 4.476.271 4.476 3.635 0 3.363-.082 6.646-.082 6.646s-5.018-.027-8.898 1.465c-3.879 1.491-5.914 3.933-5.914 7.324 0 3.39 2.604 5.994 5.941 5.994 3.337 0 6.321-2.17 7.081-2.766.76-.597 1.818-1.764 1.818-1.764v2.143c0 .787.922 1.764 3.011 1.764s3.5-.814 4.096-1.275c.597-.462.977-.733 1.221-.977.244-.244.733-1.655-.895-.895Zm-7.433-3.744s-2.795 3.988-6.403 3.988c-3.608 0-4.015-2.387-4.015-3.337 0-.949.841-3.58 3.879-4.774 1.872-.76 6.539-1.193 6.539-1.193v5.316ZM215.08 18.69c-.976-2.008-4.476-1.953-7.813.217-3.337 2.17-5.371 6.591-5.371 6.591s2.523-1.6 4.394-2.007c3.039-.678 4.477.515 6.539-.298 2.089-.814 3.201-2.469 2.224-4.476l.027-.027Zm-2.523 1.003c-1.166-.596-2.414-.705-4.123-.488 0 0 1.79-1.112 3.581-1.166 1.79-.082 2.387.76 2.251 1.41-.162.678-.759.733-1.709.244Z" fill="#80B857"/><path d="M8.22 51.567c-2.55-.353-4.53-2.035-5.344-4.503-.787-2.442-.19-4.992 1.655-6.782l3.011-2.957-1.492-1.437-2.957 2.902a8.703 8.703 0 0 0-2.17 8.925c1.03 3.173 3.716 5.425 7 5.913l3.933.57.353-2.035-3.989-.57v-.026ZM40.369 12.017l4.748-2.523-.923-1.871-4.802 2.55a6.465 6.465 0 0 1-6.131 0l-4.72-2.47-.923 1.873 4.694 2.468a8.639 8.639 0 0 0 8.057 0v-.027ZM25.692 57.86c-1.275-2.55-3.717-4.34-6.538-4.747l-5.182-.733-.353 2.035 5.236.76a6.536 6.536 0 0 1 4.965 3.607l2.279 4.612 1.817-.977-2.252-4.584.028.027ZM12.969 13.916c-.435-2.523.542-4.964 2.604-6.483a6.483 6.483 0 0 1 3.88-1.302c1.03 0 2.088.244 3.065.786l3.527 1.845.922-1.872-3.472-1.817c-2.957-1.546-6.43-1.275-9.116.705a8.665 8.665 0 0 0-3.418 8.518l.651 3.716 2.035-.299-.651-3.77-.027-.027ZM14.867 24.82l-.95-5.37-2.034.298.95 5.425a6.608 6.608 0 0 1-1.873 5.86l-3.635 3.58 1.492 1.438 3.608-3.554a8.726 8.726 0 0 0 2.47-7.703l-.028.027ZM69.75 38.6l-2.93-2.848-1.465 1.465 2.957 2.876c1.844 1.79 2.468 4.34 1.682 6.781-.787 2.441-2.767 4.15-5.318 4.53l-3.88.57.354 2.034 3.825-.57a8.601 8.601 0 0 0 6.972-5.94c1.004-3.174.163-6.592-2.225-8.897h.028ZM47.286 57.779l-2.224 4.53 1.844.95 2.225-4.585a6.585 6.585 0 0 1 4.965-3.635l5.317-.787-.353-2.034-5.263.786a8.609 8.609 0 0 0-6.51 4.775ZM60.39 32.389l3.69 3.58 1.464-1.464-3.716-3.635a6.718 6.718 0 0 1-1.927-5.86l.923-5.452-2.035-.298-.895 5.398c-.461 2.821.461 5.696 2.523 7.676l-.027.055ZM42.43 67.734c-1.14 2.306-3.337 3.69-5.887 3.716-2.55 0-4.775-1.383-5.914-3.662l-1.872-3.743-1.818.976 1.845 3.717a8.593 8.593 0 0 0 7.76 4.828h.026c3.31 0 6.294-1.872 7.76-4.883l1.844-3.77-1.845-.95-1.845 3.798-.054-.027ZM50.108 6.836c2.279-1.194 4.856-1.031 6.945.488 2.09 1.519 3.066 3.933 2.632 6.456l-.624 3.77 2.034.299.624-3.716a8.689 8.689 0 0 0-3.472-8.49 8.594 8.594 0 0 0-9.116-.652l-3.39 1.79.922 1.872 3.418-1.817h.027Z" fill="#80B857" stroke="#80B857" stroke-width=".36" stroke-miterlimit="10"/><path d="M6.7 34.044c-2.305-2.252-3.119-5.426-2.115-8.518.976-3.093 3.472-5.208 6.673-5.67l.652-.108-.299-1.763-.597.081c-3.825.57-6.918 3.201-8.084 6.89-1.167 3.69-.19 7.65 2.577 10.335l.57.57 1.275-1.248-.624-.597-.027.028ZM47.72 14.431c1.167.163 2.306.57 3.31 1.302a6.901 6.901 0 0 1 2.198 2.659c.434.108.868.217 1.302.27l4.232.598.298-1.764-4.286-.623a8.22 8.22 0 0 1-6.24-4.53l-1.872-3.744-1.573.841 1.845 3.716c.217.434.488.841.76 1.248l.026.027ZM59.495 54.822c.542 3.174-.679 6.24-3.256 8.138-2.604 1.926-5.86 2.17-8.735.65l-.624-.325-.787 1.6.57.3c3.418 1.79 7.487 1.491 10.58-.814a9.99 9.99 0 0 0 3.96-9.874l-.08-.489-1.764.272.081.542h.055ZM25.584 63.665c-2.85 1.52-6.105 1.275-8.736-.624-2.604-1.899-3.852-4.937-3.31-8.11l.082-.516-1.764-.244-.081.488c-.651 3.825.895 7.596 4.015 9.847a10.046 10.046 0 0 0 5.887 1.926c1.6 0 3.228-.38 4.72-1.194l.489-.27-.787-1.601-.543.27.027.028ZM58.6 43.076s.026-.163.053-.244a2.01 2.01 0 0 0-.108.38c0-.055.027-.082.054-.136ZM61.584 19.694c3.201.46 5.697 2.577 6.701 5.642 1.004 3.065.217 6.266-2.062 8.518l-.651.65 1.275 1.248.624-.623a10.114 10.114 0 0 0 2.523-10.363c-1.194-3.689-4.313-6.293-8.139-6.863l-.705-.108-.298 1.763.76.109-.028.027ZM36.544 59.216h.244-.543.299ZM61.15 38.845c-.325.325-.651.705-.922 1.058.217 1.166.19 2.414-.217 3.608a6.995 6.995 0 0 1-1.872 2.956c0 .434.054.868.135 1.302l.76 4.449 1.763-.271-.786-4.476a8.377 8.377 0 0 1 2.36-7.378l2.957-2.903-1.275-1.248-2.93 2.876.027.027ZM39.962 59.759a7.396 7.396 0 0 1-3.419.922h-.081a7.347 7.347 0 0 1-3.418-.868c-.407.163-.814.326-1.194.543l-3.907 2.088.787 1.6 3.961-2.088c2.414-1.275 5.29-1.302 7.705 0l3.88 2.034.786-1.6-3.852-2.007c-.407-.217-.842-.38-1.248-.543v-.081ZM19.697 18.473c.515-1.058 1.248-2.008 2.251-2.713a7.166 7.166 0 0 1 3.201-1.302c.245-.38.489-.787.706-1.193l1.79-3.69-1.573-.813-1.818 3.716a8.19 8.19 0 0 1-6.212 4.557l-4.368.651.298 1.763 4.34-.65c.49-.082.95-.19 1.412-.326h-.027ZM28.947 6.863c1.41-2.903 4.178-4.639 7.406-4.666h.027c3.202 0 5.996 1.736 7.407 4.612l.407.813 1.573-.84-.38-.76A9.99 9.99 0 0 0 36.38.434h-.027c-3.852 0-7.298 2.17-9.007 5.642l-.407.814 1.574.814.407-.841h.027ZM14.84 46.522a7.14 7.14 0 0 1-1.9-3.011 7.007 7.007 0 0 1-.216-3.5 8.12 8.12 0 0 0-.923-1.03L8.79 36.05l-1.275 1.248 3.038 2.956c1.953 1.9 2.849 4.666 2.415 7.351l-.76 4.503 1.763.245.76-4.45c.081-.46.108-.921.136-1.383h-.028Z" fill="#80B857" stroke="#80B857" stroke-width=".31" stroke-miterlimit="10"/><path d="m59.06 52.218.353 2.061 1.737-.27-.353-2.035-1.736.244ZM45.062 62.336l-.787 1.6 1.845.95.76-1.6-1.818-.95ZM58.762 19.287l2.062.298.298-1.763-2.062-.271-.298 1.736ZM13.945 19.45l-.298-1.764-2.062.299.325 1.763 2.035-.298ZM27.944 62.417l-1.818.977.787 1.6 1.817-.977-.786-1.6ZM13.972 52.38l-1.764-.244-.325 2.035 1.736.244.353-2.035ZM45.116 9.467l1.573-.814-.922-1.871-1.574.84.923 1.845ZM27.617 9.576l.896-1.872-1.547-.814-.922 1.872 1.573.814ZM64.08 35.97l1.274 1.247 1.465-1.465-1.275-1.248-1.465 1.465ZM8.79 36.078 7.325 34.64 6.05 35.888l1.492 1.438 1.248-1.248Z" fill="#80B857" stroke="#80B857" stroke-width=".31" stroke-miterlimit="10"/><path d="M54.693 32.714a5.684 5.684 0 0 1-1.627-5.072l.813-4.829c.272-1.546 0-3.065-.65-4.394a9.974 9.974 0 0 1-5.535-3.96 7.135 7.135 0 0 0-4.26.759l-4.313 2.279a5.754 5.754 0 0 1-5.317 0l-4.314-2.279a7.06 7.06 0 0 0-4.368-.732 10.177 10.177 0 0 1-5.425 4.014c-.624 1.33-.869 2.821-.597 4.34l.814 4.829c.325 1.872-.299 3.743-1.655 5.073l-3.5 3.417c-1.112 1.085-1.79 2.442-2.062 3.907a10.217 10.217 0 0 1 2.144 6.51 7.097 7.097 0 0 0 3.879 1.899l4.829.705a5.615 5.615 0 0 1 4.286 3.147l2.17 4.394a7.105 7.105 0 0 0 3.04 3.147 9.85 9.85 0 0 1 3.173-.624c-2.116-.082-3.934-1.248-4.883-3.174l-2.17-4.395a12.4 12.4 0 0 0-.462-.813c-.813-.109-1.6-.38-2.278-.895a5.515 5.515 0 0 1-1.682-2.035 12.615 12.615 0 0 0-.977-.217l-4.829-.705c-2.198-.326-3.934-1.79-4.612-3.906-.678-2.116-.136-4.313 1.438-5.86l3.5-3.417c.217-.19.406-.407.57-.651a5.327 5.327 0 0 1 .135-2.605 4.866 4.866 0 0 1 1.438-2.197c0-.298-.054-.624-.082-.922l-.814-4.829c-.38-2.197.462-4.286 2.28-5.588 1.79-1.302 4.042-1.464 6.022-.433l4.314 2.278c.27.136.542.271.84.38a5.241 5.241 0 0 1 2.252-.597c.923 0 1.79.244 2.55.651a7.226 7.226 0 0 0 1.059-.434l4.313-2.278c1.98-1.031 4.205-.869 6.023.433 1.79 1.302 2.631 3.418 2.279 5.616l-.814 4.828c-.082.407-.082.814-.082 1.22.516.543.977 1.194 1.221 1.954a5.29 5.29 0 0 1 .19 2.333c.217.298.461.596.733.868l3.5 3.418c1.518 1.492 2.088 3.58 1.491 5.642a10.119 10.119 0 0 1 1.547-2.93c-.272-1.41-.95-2.74-2.035-3.77l-3.5-3.418v-.082Z" fill="#80B857" stroke="#80B857" stroke-width=".21" stroke-miterlimit="10"/><path d="m53.988 46.982-4.83.706c-.298.054-.596.108-.895.19a5.122 5.122 0 0 1-1.627 2.034c-.733.543-1.6.868-2.469.95a6.896 6.896 0 0 0-.434.759l-2.17 4.394c-.923 1.9-2.713 3.066-4.802 3.174 1.085 0 2.143.217 3.174.597a7.397 7.397 0 0 0 2.957-3.092l2.17-4.395c.841-1.682 2.442-2.875 4.287-3.146l4.829-.706a7.06 7.06 0 0 0 3.933-1.953c-.054-1.112.109-2.224.407-3.282-.705 2.034-2.414 3.445-4.557 3.77h.027ZM53.228 18.392a7.418 7.418 0 0 0-2.197-2.659 6.97 6.97 0 0 0-3.31-1.302 9.974 9.974 0 0 0 5.534 3.96h-.027Z" fill="#80B857" stroke="#80B857" stroke-width=".21" stroke-miterlimit="10"/><path d="M36.544 59.217h-.299a9.85 9.85 0 0 0-3.174.623c1.031.57 2.198.868 3.419.868h.081c1.22 0 2.387-.352 3.418-.922a9.818 9.818 0 0 0-3.174-.596h-.244l-.027.027ZM12.94 43.51c.38 1.194 1.059 2.198 1.9 3.012.054-2.36-.678-4.666-2.143-6.51a7.69 7.69 0 0 0 .217 3.498h.027ZM25.122 14.459a7.166 7.166 0 0 0-5.453 4.014c2.224-.678 4.15-2.089 5.426-4.014h.027ZM58.6 43.076s-.028.082-.055.136c-.298 1.058-.461 2.17-.407 3.282a7.346 7.346 0 0 0 1.872-2.956 7.439 7.439 0 0 0 .217-3.608 10.122 10.122 0 0 0-1.546 2.93.792.792 0 0 1-.054.243l-.028-.027Z" fill="#80B857" stroke="#80B857" stroke-width=".21" stroke-miterlimit="10"/><path d="m31.85 50.292 2.848-1.52a4.025 4.025 0 0 1 3.69 0l2.876 1.52a5.007 5.007 0 0 0 2.523.596c.135 0 .27-.027.434-.054a7.124 7.124 0 0 1 4.096-2.984c.407-.922.543-1.98.353-3.01l-.57-3.202c-.244-1.302.19-2.604 1.112-3.526l2.28-2.279a5.213 5.213 0 0 0 1.464-2.93 7.182 7.182 0 0 1-1.41-4.285c-.787-.814-1.791-1.41-2.985-1.6l-3.2-.462a4.007 4.007 0 0 1-3.012-2.197l-1.465-2.902a5.242 5.242 0 0 0-2.116-2.225c-1.547.516-3.256.516-4.775-.081-.977.488-1.818 1.275-2.306 2.306l-1.41 2.902a3.949 3.949 0 0 1-2.958 2.17l-3.201.461a5.197 5.197 0 0 0-2.659 1.275c.082 1.736-.488 3.445-1.573 4.829a5.325 5.325 0 0 0 1.465 2.74l2.333 2.278a3.979 3.979 0 0 1 1.166 3.526l-.515 3.201a5.26 5.26 0 0 0 .434 3.038 7.187 7.187 0 0 1 3.96 2.93c1.059.163 2.144 0 3.12-.515Zm-4.72-1.357c-1.276-.922-1.873-2.387-1.628-3.906l.515-3.2a5.246 5.246 0 0 0-1.52-4.585l-2.332-2.279c-1.113-1.085-1.52-2.63-1.031-4.123.46-1.465 1.655-2.468 3.147-2.685l3.2-.461a5.08 5.08 0 0 0 3.853-2.822l1.411-2.902c.651-1.356 1.926-2.17 3.418-2.224h.082c1.519 0 2.903.84 3.608 2.224l1.465 2.902a5.216 5.216 0 0 0 3.88 2.822l3.2.46c1.547.218 2.74 1.248 3.229 2.74.488 1.465.108 2.984-.977 4.07l-2.279 2.278a5.196 5.196 0 0 0-1.438 4.584l.57 3.201c.272 1.52-.298 2.984-1.519 3.906-1.248.923-2.794 1.031-4.178.299l-2.876-1.52a5.162 5.162 0 0 0-2.523-.596c-.786 0-1.546.217-2.251.597l-2.849 1.519c-1.356.705-2.903.596-4.15-.299h-.028Z" fill="#80B857"/><path d="M31.334 24.875a5.08 5.08 0 0 1-3.852 2.82l-3.201.462c-1.492.217-2.686 1.22-3.147 2.685-.489 1.492-.082 3.038 1.03 4.123l2.334 2.279a5.246 5.246 0 0 1 1.519 4.584l-.515 3.201c-.245 1.52.352 2.984 1.627 3.906h.027c1.248.895 2.795 1.004 4.151.299l2.849-1.52c.705-.38 1.465-.596 2.251-.596a5.162 5.162 0 0 1 2.523.597l2.876 1.519c1.384.732 2.93.624 4.178-.299 1.22-.922 1.79-2.387 1.52-3.906l-.57-3.2a5.196 5.196 0 0 1 1.437-4.585l2.28-2.279c1.084-1.085 1.464-2.604.976-4.069-.488-1.492-1.682-2.522-3.229-2.74l-3.2-.46a5.216 5.216 0 0 1-3.88-2.822l-1.465-2.902a4.033 4.033 0 0 0-3.608-2.224h-.082c-1.492.054-2.767.868-3.418 2.224l-1.41 2.902Zm0 0-.542-.272m1.058 25.689 2.848-1.52a4.025 4.025 0 0 1 3.69 0l2.876 1.52a5.007 5.007 0 0 0 2.523.596c.135 0 .27-.027.434-.054a7.124 7.124 0 0 1 4.096-2.984c.407-.922.543-1.98.353-3.01l-.57-3.202c-.244-1.302.19-2.604 1.112-3.526l2.28-2.279a5.213 5.213 0 0 0 1.464-2.93 7.182 7.182 0 0 1-1.41-4.285c-.787-.814-1.791-1.41-2.985-1.6l-3.2-.462a4.007 4.007 0 0 1-3.012-2.197l-1.465-2.902a5.242 5.242 0 0 0-2.116-2.225c-1.547.516-3.256.516-4.775-.081-.977.488-1.818 1.275-2.306 2.306l-1.41 2.902a3.949 3.949 0 0 1-2.958 2.17l-3.201.461a5.197 5.197 0 0 0-2.659 1.275c.082 1.736-.488 3.445-1.573 4.829a5.325 5.325 0 0 0 1.465 2.74l2.333 2.278a3.979 3.979 0 0 1 1.166 3.526l-.515 3.201a5.26 5.26 0 0 0 .434 3.038 7.187 7.187 0 0 1 3.96 2.93c1.059.163 2.144 0 3.12-.515Z" stroke="#80B857" stroke-width=".1" stroke-miterlimit="10"/><path d="M20.021 30.517a5.325 5.325 0 0 0-.135 2.604 7.191 7.191 0 0 0 1.573-4.829c-.65.597-1.166 1.33-1.438 2.198v.027ZM24.77 47.877c.38.787.922 1.492 1.681 2.035a5.284 5.284 0 0 0 2.28.895 7.282 7.282 0 0 0-3.962-2.93ZM38.741 19.233a4.83 4.83 0 0 0-2.55-.651c-.814 0-1.546.244-2.252.596a7.21 7.21 0 0 0 4.775.082l.027-.027ZM52.712 30.571a4.872 4.872 0 0 0-1.22-1.953c0 1.546.488 3.038 1.41 4.286a5.26 5.26 0 0 0-.19-2.333ZM44.193 50.861a5.334 5.334 0 0 0 2.47-.95 5.122 5.122 0 0 0 1.627-2.034 7.124 7.124 0 0 0-4.097 2.984Z" fill="#80B857" stroke="#80B857" stroke-width=".1" stroke-miterlimit="10"/><path d="M36.435 39.17c1.899 0 3.418-1.546 3.418-3.445 0-1.898-1.546-3.445-3.418-3.445s-3.418 1.547-3.418 3.445c0 1.9 1.546 3.445 3.418 3.445ZM92.755 55.283c.217.027.353.054.624.081.95.109 1.98.136 2.116.136 1.438.027 2.143.054 2.767.027a20.3 20.3 0 0 0 3.418-.434c1.14-.244 2.198-.57 3.202-1.003a14.834 14.834 0 0 0 2.794-1.574 9.39 9.39 0 0 0 2.17-2.224 10.255 10.255 0 0 0 1.384-2.903c.325-1.085.434-2.278.38-3.607-.082-1.574-.434-2.93-1.058-4.042a8.3 8.3 0 0 0-2.523-2.794c-1.058-.732-2.279-1.275-3.69-1.628a20.165 20.165 0 0 0-4.585-.596v-.136a17.19 17.19 0 0 0 3.473-1.492 12.148 12.148 0 0 0 2.876-2.17 9.167 9.167 0 0 0 1.926-2.957c.461-1.112.651-2.36.569-3.77-.054-.977-.244-1.845-.542-2.577-.326-.733-.733-1.384-1.275-1.9a5.99 5.99 0 0 0-1.845-1.301c-.705-.353-1.465-.597-2.306-.787a16.19 16.19 0 0 0-2.632-.353 24.448 24.448 0 0 0-2.821 0 42.368 42.368 0 0 0-3.608.326 81.576 81.576 0 0 0-3.717.57c-1.22.217-2.414.46-3.58.705-.87.19-.76.163-1.52.325-.38.082-1.004.217-1.004.597 0 .461.271 1.058.76 1.004.786-.054.976-.136 1.519-.163.515 0 .95 0 1.302.081.353.082.624.218.814.407.19.19.353.462.434.787.081.326.163.705.163 1.166.081 1.547.136 3.174.217 4.802v24.956c0 1.383 0 2.197.054 2.523.082.759.543.84.733.84.027 0 .108 0 .162-.027.082-.027.136-.081.163-.108.136-.136.326-.353.597-.543.271-.19.57-.407.977-.434.27 0 .325.054 1.03.163l.082.027Zm.488-33.826v-.407s-.135-.488-.217-1.166c0-.38.299-.353.543-.38.325-.055.678-.109 1.004-.163.542-.081 1.085-.108 1.6-.136 1.085-.054 2.09 0 3.066.19.949.19 1.79.516 2.523 1.004a5.21 5.21 0 0 1 1.763 1.98c.434.841.706 1.872.76 3.12.054 1.058-.054 2.007-.326 2.848-.271.84-.651 1.6-1.139 2.224-.488.651-1.112 1.194-1.791 1.682a10.81 10.81 0 0 1-2.306 1.166c-.84.299-1.709.57-2.631.733-.651.136-1.33.217-1.98.298-.272.027-.543-.081-.679-.298v-.244L93.27 21.43l-.027.027Zm.19 30.056V37.027c0-.352.244-.65.597-.705.136 0 .271 0 .407-.027l1.085-.081c1.79-.082 3.391 0 4.802.325 1.411.298 2.604.787 3.608 1.465a6.744 6.744 0 0 1 2.306 2.631c.543 1.058.868 2.333.95 3.77.081 1.547-.109 2.903-.543 4.042-.434 1.14-1.085 2.09-1.926 2.822a8.16 8.16 0 0 1-2.984 1.708c-.109.028-.19.055-.244.082-1.221.352-2.225.407-3.527.434-2.713.081-3.5-.027-3.853-.434a2.911 2.911 0 0 1-.434-.651 2.088 2.088 0 0 1-.19-.868l-.054-.027Z" fill="#80B857"/></g><defs><clipPath id="a"><path fill="#fff" d="M0 0h244v74H0z"/></clipPath></defs></svg>